<?xml version="1.0" standalone="no"?>
<!DOCTYPE svg PUBLIC "-//W3C//DTD SVG 20010904//EN"
 "http://www.w3.org/TR/2001/REC-SVG-20010904/DTD/svg10.dtd">
<svg version="1.0" xmlns="http://www.w3.org/2000/svg"
 width="1600.000000pt" height="1600.000000pt" viewBox="0 0 1600.000000 1600.000000"
 preserveAspectRatio="xMidYMid meet">

<g transform="translate(0.000000,1600.000000) scale(0.100000,-0.100000)"
fill="#000000" stroke="none">
<path d="M7805 15348 c-344 -39 -682 -205 -935 -459 -230 -231 -377 -507 -442
-831 -30 -150 -32 -433 -4 -578 82 -426 315 -788 666 -1034 189 -133 392 -215
660 -267 39 -8 141 -13 255 -13 206 1 313 16 480 71 571 186 982 655 1091
1248 26 139 26 411 0 550 -156 845 -918 1410 -1771 1313z"/>
<path d="M7740 11509 c-825 -81 -1553 -488 -2044 -1143 -295 -393 -474 -830
-553 -1351 -17 -112 -18 -225 -18 -1689 l0 -1568 555 -222 555 -222 112 -2119
c62 -1166 112 -2146 112 -2177 l1 -58 1540 0 1540 0 1 58 c0 31 50 1011 112
2177 l112 2119 555 222 555 222 0 1558 c0 1687 2 1619 -56 1907 -153 758 -629
1444 -1289 1856 -358 224 -729 358 -1154 416 -135 19 -505 27 -636 14z"/>
</g>
</svg>
